HIERARCHY
ROOT Hips
{
	OFFSET 0.000000 83.214638 0.000000
	CHANNELS 6 Xposition Yposition Zposition Xrotation Yrotation Zrotation
	JOINT Pelvis
	{
		OFFSET 0.000000 0.000000 0.000000
		CHANNELS 3 Xrotation Yrotation Zrotation
		JOINT LeftUpLeg
		{
			OFFSET 8.479700 -4.795502 -0.379100
			CHANNELS 3 Xrotation Yrotation Zrotation
			JOINT LeftLeg
			{
				OFFSET 0.024144 -32.555107 0.112900
				CHANNELS 3 Xrotation Yrotation Zrotation
				JOINT LeftFoot
				{
					OFFSET -0.024144 -32.638630 -3.012600
					CHANNELS 3 Xrotation Yrotation Zrotation
					JOINT LeftToeBase
					{
						OFFSET 0.970200 -13.225400 11.864200
						CHANNELS 3 Xrotation Yrotation Zrotation
						End Site
						{
							OFFSET 0.000000 12.319262 0.000000
						}
					}
					JOINT LFootTongue
					{
						OFFSET 1.142400 -1.059800 6.665200
						CHANNELS 3 Xrotation Yrotation Zrotation
						End Site
						{
							OFFSET 0.000000 12.319262 0.000000
						}
					}
				}
				JOINT LeftPantLeg
				{
					OFFSET 0.918482 -16.533964 -2.284700
					CHANNELS 3 Xrotation Yrotation Zrotation
					End Site
					{
						OFFSET 0.350399 24.744368 0.000000
					}
				}
			}
		}
		JOINT RightUpLeg
		{
			OFFSET -8.479700 -4.795502 -0.379100
			CHANNELS 3 Xrotation Yrotation Zrotation
			JOINT RightLeg
			{
				OFFSET -0.023144 -32.555092 0.112900
				CHANNELS 3 Xrotation Yrotation Zrotation
				JOINT RightFoot
				{
					OFFSET 0.023144 -32.638641 -3.012700
					CHANNELS 3 Xrotation Yrotation Zrotation
					JOINT RightToeBase
					{
						OFFSET -0.970200 -13.225400 11.864200
						CHANNELS 3 Xrotation Yrotation Zrotation
						End Site
						{
							OFFSET 0.000000 12.319244 0.000000
						}
					}
					JOINT RFootTongue
					{
						OFFSET -1.142200 -1.059800 6.665200
						CHANNELS 3 Xrotation Yrotation Zrotation
						End Site
						{
							OFFSET 0.000000 12.319243 0.000000
						}
					}
				}
				JOINT RightPantLeg
				{
					OFFSET -0.919482 -16.533978 -2.284800
					CHANNELS 3 Xrotation Yrotation Zrotation
					End Site
					{
						OFFSET -0.350400 24.744419 0.000000
					}
				}
			}
		}
	}
	JOINT Spine
	{
		OFFSET 0.000000 7.722000 1.166200
		CHANNELS 3 Xrotation Yrotation Zrotation
		JOINT Spine1
		{
			OFFSET 0.000000 12.024101 0.248800
			CHANNELS 3 Xrotation Yrotation Zrotation
			JOINT Spine2
			{
				OFFSET 0.000000 11.502998 -0.491200
				CHANNELS 3 Xrotation Yrotation Zrotation
				JOINT Neck
				{
					OFFSET 0.000000 18.430702 -3.123100
					CHANNELS 3 Xrotation Yrotation Zrotation
					JOINT Head
					{
						OFFSET 0.000000 9.051102 1.034000
						CHANNELS 3 Xrotation Yrotation Zrotation
						JOINT HairB
						{
							OFFSET 0.208400 24.786102 24.822300
							CHANNELS 3 Xrotation Yrotation Zrotation
							End Site
							{
								OFFSET 0.000000 32.263779 0.000000
							}
						}
						JOINT HairA
						{
							OFFSET -7.081100 24.428299 23.196600
							CHANNELS 3 Xrotation Yrotation Zrotation
							End Site
							{
								OFFSET 0.000000 32.263779 0.000000
							}
						}
						JOINT Hat
						{
							OFFSET 16.728800 15.048294 -15.439601
							CHANNELS 3 Xrotation Yrotation Zrotation
							End Site
							{
								OFFSET 0.000000 32.263779 0.000000
							}
						}
					}
				}
				JOINT LeftShoulder
				{
					OFFSET 6.197800 13.665199 -4.064700
					CHANNELS 3 Xrotation Yrotation Zrotation
					JOINT LeftArm
					{
						OFFSET 7.778100 -0.187103 -1.709300
						CHANNELS 3 Xrotation Yrotation Zrotation
						JOINT LeftForeArm
						{
							OFFSET 22.049376 0.000000 0.000000
							CHANNELS 3 Xrotation Yrotation Zrotation
							JOINT LeftHand
							{
								OFFSET 23.009392 0.000000 0.000000
								CHANNELS 3 Xrotation Yrotation Zrotation
								JOINT LeftHandThumb1
								{
									OFFSET 3.507191 -2.063065 3.133727
									CHANNELS 3 Xrotation Yrotation Zrotation
									JOINT LeftHandThumb2
									{
										OFFSET 3.101337 -1.790558 1.790558
										CHANNELS 3 Xrotation Yrotation Zrotation
										JOINT LeftHandThumb3
										{
											OFFSET 3.058640 -1.765907 1.765906
											CHANNELS 3 Xrotation Yrotation Zrotation
											End Site
											{
												OFFSET -0.415260 3.926476 -0.049563
											}
										}
									}
								}
								JOINT LeftHandIndex1
								{
									OFFSET 11.334419 -0.901459 3.706815
									CHANNELS 3 Xrotation Yrotation Zrotation
									JOINT LeftHandIndex2
									{
										OFFSET 3.283112 0.000000 0.000000
										CHANNELS 3 Xrotation Yrotation Zrotation
										JOINT LeftHandIndex3
										{
											OFFSET 3.323853 0.000000 0.000000
											CHANNELS 3 Xrotation Yrotation Zrotation
											End Site
											{
												OFFSET -1.135597 3.097809 0.402452
											}
										}
									}
								}
								JOINT LeftHandMiddle1
								{
									OFFSET 11.335861 0.000000 0.000000
									CHANNELS 3 Xrotation Yrotation Zrotation
									JOINT LeftHandMiddle2
									{
										OFFSET 3.410492 0.000000 0.000000
										CHANNELS 3 Xrotation Yrotation Zrotation
										JOINT LeftHandMiddle3
										{
											OFFSET 3.312172 0.000000 0.000000
											CHANNELS 3 Xrotation Yrotation Zrotation
											End Site
											{
												OFFSET -1.150200 3.080154 0.400270
											}
										}
									}
								}
								JOINT LeftHandRing1
								{
									OFFSET 11.514786 -0.013176 -3.003090
									CHANNELS 3 Xrotation Yrotation Zrotation
									JOINT LeftHandRing2
									{
										OFFSET 3.053307 0.000000 0.000000
										CHANNELS 3 Xrotation Yrotation Zrotation
										JOINT LeftHandRing3
										{
											OFFSET 3.295807 0.000000 0.000000
											CHANNELS 3 Xrotation Yrotation Zrotation
											End Site
											{
												OFFSET -1.281006 3.013344 0.375733
											}
										}
									}
								}
								JOINT LeftHandPinky1
								{
									OFFSET 10.518692 -0.960396 -5.730441
									CHANNELS 3 Xrotation Yrotation Zrotation
									JOINT LeftHandPinky2
									{
										OFFSET 2.861649 0.000000 0.000000
										CHANNELS 3 Xrotation Yrotation Zrotation
										JOINT LeftHandPinky3
										{
											OFFSET 2.863380 0.000000 0.000000
											CHANNELS 3 Xrotation Yrotation Zrotation
											End Site
											{
												OFFSET -0.843597 2.711159 0.369971
											}
										}
									}
								}
							}
							JOINT LSleeve
							{
								OFFSET 6.676277 -0.344902 -1.011730
								CHANNELS 3 Xrotation Yrotation Zrotation
								End Site
								{
									OFFSET 0.000000 14.885353 0.000000
								}
							}
						}
					}
				}
				JOINT RightShoulder
				{
					OFFSET -6.197800 13.665199 -4.064700
					CHANNELS 3 Xrotation Yrotation Zrotation
					JOINT RightArm
					{
						OFFSET -7.778100 -0.187103 -1.709300
						CHANNELS 3 Xrotation Yrotation Zrotation
						JOINT RightForeArm
						{
							OFFSET -22.049376 0.000000 0.000000
							CHANNELS 3 Xrotation Yrotation Zrotation
							JOINT RightHand
							{
								OFFSET -23.009392 0.000000 0.000000
								CHANNELS 3 Xrotation Yrotation Zrotation
								JOINT RightHandThumb1
								{
									OFFSET -3.507191 -2.063065 3.133727
									CHANNELS 3 Xrotation Yrotation Zrotation
									JOINT RightHandThumb2
									{
										OFFSET -3.101337 -1.790558 1.790558
										CHANNELS 3 Xrotation Yrotation Zrotation
										JOINT RightHandThumb3
										{
											OFFSET -3.058640 -1.765907 1.765906
											CHANNELS 3 Xrotation Yrotation Zrotation
											End Site
											{
												OFFSET 0.415260 3.926476 -0.049563
											}
										}
									}
								}
								JOINT RightHandIndex1
								{
									OFFSET -11.334419 -0.901459 3.706815
									CHANNELS 3 Xrotation Yrotation Zrotation
									JOINT RightHandIndex2
									{
										OFFSET -3.283112 0.000000 0.000000
										CHANNELS 3 Xrotation Yrotation Zrotation
										JOINT RightHandIndex3
										{
											OFFSET -3.323853 0.000000 0.000000
											CHANNELS 3 Xrotation Yrotation Zrotation
											End Site
											{
												OFFSET 1.135597 3.097809 0.402452
											}
										}
									}
								}
								JOINT RightHandMiddle1
								{
									OFFSET -11.335861 0.000000 0.000000
									CHANNELS 3 Xrotation Yrotation Zrotation
									JOINT RightHandMiddle2
									{
										OFFSET -3.410492 0.000000 0.000000
										CHANNELS 3 Xrotation Yrotation Zrotation
										JOINT RightHandMiddle3
										{
											OFFSET -3.312172 0.000000 0.000000
											CHANNELS 3 Xrotation Yrotation Zrotation
											End Site
											{
												OFFSET 1.150200 3.080154 0.400270
											}
										}
									}
								}
								JOINT RightHandRing1
								{
									OFFSET -11.514786 -0.013176 -3.003090
									CHANNELS 3 Xrotation Yrotation Zrotation
									JOINT RightHandRing2
									{
										OFFSET -3.053307 0.000000 0.000000
										CHANNELS 3 Xrotation Yrotation Zrotation
										JOINT RightHandRing3
										{
											OFFSET -3.295807 0.000000 0.000000
											CHANNELS 3 Xrotation Yrotation Zrotation
											End Site
											{
												OFFSET 1.281006 3.013344 0.375733
											}
										}
									}
								}
								JOINT RightHandPinky1
								{
									OFFSET -10.518692 -0.960396 -5.730441
									CHANNELS 3 Xrotation Yrotation Zrotation
									JOINT RightHandPinky2
									{
										OFFSET -2.861649 0.000000 0.000000
										CHANNELS 3 Xrotation Yrotation Zrotation
										JOINT RightHandPinky3
										{
											OFFSET -2.863380 0.000000 0.000000
											CHANNELS 3 Xrotation Yrotation Zrotation
											End Site
											{
												OFFSET 0.843597 2.711159 0.369971
											}
										}
									}
								}
							}
							JOINT RSleeve
							{
								OFFSET -6.676277 -0.344902 -1.011730
								CHANNELS 3 Xrotation Yrotation Zrotation
								End Site
								{
									OFFSET 0.000000 14.885353 0.000000
								}
							}
						}
					}
				}
				JOINT Backpack
				{
					OFFSET 0.000000 -2.471497 36.677502
					CHANNELS 3 Xrotation Yrotation Zrotation
					End Site
					{
						OFFSET 0.000000 20.427315 0.000000
					}
				}
				JOINT Hood
				{
					OFFSET 0.000000 18.754097 -10.431000
					CHANNELS 3 Xrotation Yrotation Zrotation
					JOINT Hood1
					{
						OFFSET 0.000000 -5.011002 -7.685901
						CHANNELS 3 Xrotation Yrotation Zrotation
						End Site
						{
							OFFSET 0.000000 9.175140 0.000000
						}
					}
				}
				JOINT LHoodieString
				{
					OFFSET 5.250500 16.397697 3.089900
					CHANNELS 3 Xrotation Yrotation Zrotation
					JOINT LHoodieString1
					{
						OFFSET 0.257700 -6.364304 3.694600
						CHANNELS 3 Xrotation Yrotation Zrotation
						JOINT LHoodieString2
						{
							OFFSET 0.000000 -9.643799 2.679100
							CHANNELS 3 Xrotation Yrotation Zrotation
							End Site
							{
								OFFSET 0.000000 10.009018 0.000000
							}
						}
					}
				}
				JOINT RHoodieString
				{
					OFFSET -5.250500 16.397697 3.089900
					CHANNELS 3 Xrotation Yrotation Zrotation
					JOINT RHoodieString1
					{
						OFFSET -0.257700 -6.364304 3.694600
						CHANNELS 3 Xrotation Yrotation Zrotation
						JOINT RHoodieString2
						{
							OFFSET 0.000000 -9.643799 2.679100
							CHANNELS 3 Xrotation Yrotation Zrotation
							End Site
							{
								OFFSET 0.000000 10.009018 0.000000
							}
						}
					}
				}
			}
			JOINT LBackpack_Strap
			{
				OFFSET 15.223200 -7.719803 -6.610900
				CHANNELS 3 Xrotation Yrotation Zrotation
				End Site
				{
					OFFSET 0.000000 16.040596 0.000000
				}
			}
			JOINT RBackpack_Strap
			{
				OFFSET -15.223000 -7.719803 -6.610900
				CHANNELS 3 Xrotation Yrotation Zrotation
				End Site
				{
					OFFSET 0.000000 16.040596 0.000000
				}
			}
		}
	}
	JOINT BoyFacialAnim_Joint
	{
		OFFSET 1.000000 -82.208099 -1.550900
		CHANNELS 3 Xrotation Yrotation Zrotation
		End Site
		{
			OFFSET 0.000000 30.012791 0.000000
		}
	}
}
MOTION
Frames: 4
Frame Time: 0.033333
-0.146055 75.097015 5.091449 2.529067 -4.645467 2.047711 -0.000000 0.000000 0.000000 -19.047232 14.235403 -10.729670 44.873769 10.220881 7.868790 -29.714571 29.866559 0.824228 -0.000000 -0.000000 -0.000000 -0.000000 -0.000000 0.000000 0.000001 0.000000 -0.000000 -35.711951 -21.229263 4.125246 44.822170 -9.931378 -5.970270 -20.632244 -29.618747 -9.712561 -0.000000 0.000000 -0.000000 -0.000000 0.000000 -0.000000 -0.000000 0.000000 -0.000001 -7.104883 8.956178 2.000598 5.236129 1.095728 -2.186922 5.269997 1.124881 -2.087858 -1.073270 -3.308482 2.912411 -4.934565 -10.929997 -6.982280 -0.000000 0.000001 0.000000 -0.000000 0.000001 0.000000 -0.000000 0.000001 0.000000 0.288634 -1.724869 9.985112 -34.982969 -0.699632 -34.976986 0.000002 -8.580635 0.000005 1.644610 0.202358 12.958626 -1.892375 16.635342 8.126296 4.973023 20.947073 1.680407 0.000001 -0.000003 -0.000001 0.039246 -0.735501 6.106505 0.009095 0.354527 -2.939034 0.000001 0.000000 -0.000002 0.022213 -0.553695 4.593197 0.048395 0.816616 -6.783075 0.000002 0.000000 0.000002 0.008415 -0.340783 2.825067 0.148801 1.426638 -11.909687 -0.000000 -0.000002 -0.000002 -0.118851 3.877072 1.968101 0.281348 -2.102762 -16.912132 0.000000 -0.000001 -0.000000 0.000000 0.000001 -0.000002 0.779909 4.393800 1.760724 -37.495355 48.838274 65.620503 0.000002 69.988662 -0.000013 24.749440 1.118544 -15.184875 -4.151978 -14.020110 -16.303802 15.239938 -19.689449 21.606424 -0.000000 0.000001 0.000001 0.049979 0.833913 -6.859694 0.000396 -0.073477 0.602841 -0.000003 0.000001 0.000004 0.024365 0.582790 -4.787981 0.013048 -0.426668 3.503369 0.000003 0.000001 -0.000000 0.006009 0.289657 -2.377565 0.059087 -0.906385 7.459018 -0.000000 -0.000000 0.000002 0.000219 0.055932 -0.458910 0.125217 -1.316300 10.867984 0.000001 0.000002 0.000001 0.000002 0.000001 -0.000001 -0.000000 0.000000 -0.000000 -0.000000 0.000000 -0.000000 -0.000000 0.000000 -0.000000 -0.000000 0.000000 -0.000000 -0.000000 0.000000 -0.000000 -0.000000 0.000000 -0.000000 -0.000000 0.000000 -0.000000 -0.000000 0.000000 -0.000000 -0.000000 0.000000 -0.000000 0.000000 -0.000000 -0.000000 0.000000 -0.000000 -0.000000 -0.000000 0.000000 0.000000 
-0.106023 75.980331 4.985439 2.566526 -4.387277 2.109854 0.000000 -0.000000 -0.000000 -17.609172 12.942376 -11.299262 41.313072 10.291856 7.697514 -27.739160 29.910604 1.039438 -0.000000 -0.000002 -0.000000 -0.000000 -0.000002 -0.000000 0.000002 0.000000 -0.000000 -33.753586 -21.446493 4.121490 41.353507 -9.946728 -5.483360 -19.422148 -29.671438 -10.044949 0.000000 -0.000000 0.000000 0.000000 -0.000000 0.000000 0.000000 0.000001 -0.000001 -6.641266 8.787816 1.992217 4.986151 1.077416 -2.231509 5.020481 1.104038 -2.139070 -1.254830 -3.368254 2.891966 -4.538523 -11.276929 -6.797391 -0.000000 0.000000 -0.000000 -0.000000 0.000000 -0.000000 -0.000000 0.000000 -0.000000 0.246738 -1.503500 10.199644 -35.393272 -0.781460 -34.610734 -0.000010 -8.574762 -0.000011 1.010579 0.112883 13.019700 -1.892376 16.635342 8.126294 4.973027 20.947077 1.680406 -0.000000 -0.000001 0.000000 0.043308 -0.772606 6.415873 0.023207 0.565931 -4.694914 -0.000002 -0.000000 -0.000002 0.024344 -0.579609 4.808702 0.059570 0.905637 -7.526711 0.000000 -0.000003 0.000002 0.009044 -0.353592 2.931340 0.137528 1.372044 -11.447470 -0.000001 -0.000003 -0.000003 -0.120161 3.874703 1.987427 0.232349 -2.271494 -15.458045 -0.000002 0.000000 0.000003 -0.000002 -0.000002 0.000002 0.763195 4.214213 1.324501 -37.881008 48.848731 65.454481 0.000072 70.075350 -0.000075 24.465289 1.204364 -15.156584 -4.151975 -14.020108 -16.303805 15.239942 -19.689449 21.606422 -0.000002 -0.000001 -0.000001 0.048946 0.825319 -6.788464 0.001295 -0.134546 1.104230 -0.000002 0.000001 0.000005 0.016707 0.482593 -3.963252 0.013663 -0.436699 3.585771 0.000002 -0.000002 0.000005 0.000398 0.074249 -0.609240 0.052448 -0.854215 7.027420 0.000001 -0.000002 0.000002 0.004769 -0.258059 2.118106 0.104180 -1.201598 9.910651 0.000000 -0.000003 -0.000002 0.000001 -0.000001 -0.000002 -0.000000 0.000000 -0.000000 -0.000000 0.000000 -0.000000 -0.000000 0.000000 -0.000000 -0.000000 0.000000 -0.000000 -0.000000 0.000000 -0.000000 0.000000 -0.000000 -0.000000 -0.000000 0.000000 -0.000000 -0.000000 0.000000 -0.000000 0.000000 -0.000000 -0.000000 -0.000000 -0.000000 -0.000000 -0.000000 -0.000000 -0.000000 0.000000 -0.000000 -0.000000 
-0.030241 76.332489 4.725348 2.805954 -4.021284 2.385688 0.000000 -0.000000 -0.000000 -17.711580 11.308493 -11.929030 39.966855 10.281536 7.061674 -26.818934 29.928625 1.727270 -0.000000 0.000002 -0.000000 -0.000000 0.000002 0.000000 0.000001 0.000001 -0.000000 -33.456862 -22.179748 3.370262 40.034396 -9.829807 -4.985039 -19.165912 -29.671329 -10.482173 -0.000000 0.000000 0.000000 -0.000000 0.000000 0.000000 -0.000000 0.000002 -0.000000 -6.065585 8.564775 2.041031 4.673514 1.041900 -2.493469 4.711674 1.067204 -2.409433 -1.587473 -3.469308 2.805511 -3.923037 -12.008687 -6.104402 -0.000000 -0.000000 0.000000 -0.000000 -0.000000 0.000000 -0.000000 -0.000000 0.000000 0.213400 -1.345938 10.487004 -35.959942 -0.597030 -33.872373 0.000003 -8.567663 0.000001 1.151131 0.143751 13.004602 -1.892377 16.635342 8.126295 4.973029 20.947075 1.680408 0.000002 -0.000001 -0.000001 0.040902 -0.750895 6.234856 0.029499 0.637832 -5.293026 -0.000000 -0.000000 -0.000004 0.015015 -0.455402 3.776459 0.061068 0.916915 -7.620985 0.000002 -0.000001 0.000000 0.000715 -0.100213 0.830447 0.125165 1.309522 -10.919029 -0.000001 -0.000000 0.000001 0.094004 4.239785 -1.038881 0.196343 -2.406890 -14.298724 0.000000 0.000001 -0.000000 -0.000000 0.000000 0.000000 0.741958 3.996171 0.899062 -38.274031 48.693129 64.982577 -0.000048 70.502749 0.000055 23.990703 1.288518 -14.993517 -4.151977 -14.020112 -16.303807 15.239942 -19.689453 21.606422 -0.000003 0.000001 0.000001 0.031691 0.664475 -5.460880 0.001128 -0.125457 1.029385 -0.000003 0.000001 0.000005 0.005828 0.285136 -2.340385 0.014762 -0.453866 3.726943 0.000002 -0.000006 -0.000003 0.002138 -0.172719 1.417496 0.057774 -0.896354 7.375956 0.000001 -0.000001 0.000002 0.021700 -0.550039 4.518207 0.113530 -1.253847 10.346397 0.000001 0.000004 0.000003 0.000003 -0.000003 -0.000001 0.000000 -0.000000 0.000000 0.000000 -0.000000 0.000000 0.000000 -0.000000 0.000000 0.000000 -0.000000 0.000000 0.000000 -0.000000 0.000000 0.000000 -0.000000 0.000000 0.000000 -0.000000 0.000000 0.000000 -0.000000 0.000000 0.000000 -0.000000 0.000000 -0.000000 0.000000 0.000000 -0.000000 0.000000 0.000000 0.000000 -0.000000 -0.000000 
0.054719 76.184708 4.311037 3.365618 -3.648714 2.901736 -0.000000 0.000000 -0.000000 -19.085705 9.918204 -12.412172 40.718815 10.247095 5.938267 -27.075339 29.868933 2.582991 0.000000 -0.000000 -0.000000 0.000000 -0.000000 -0.000000 0.000001 0.000001 0.000000 -35.014036 -23.213615 2.077214 40.761862 -9.827374 -4.837067 -19.625423 -29.649042 -10.763814 0.000000 0.000000 -0.000000 0.000000 0.000000 -0.000000 -0.000001 -0.000001 0.000002 -5.594377 8.330556 2.115526 4.392843 0.994984 -2.935951 4.437257 1.021218 -2.859548 -2.065636 -3.631117 2.635481 -3.247474 -13.187630 -5.131385 -0.000000 -0.000001 -0.000000 -0.000000 -0.000001 -0.000000 -0.000000 -0.000001 -0.000000 0.193078 -1.259314 10.725915 -36.580868 -0.047962 -32.771104 -0.000002 -8.560148 -0.000001 2.613162 0.381192 12.837654 -1.892375 16.635341 8.126295 4.973028 20.947073 1.680408 -0.000000 0.000001 0.000001 0.036416 -0.708752 5.883580 0.027788 0.619240 -5.138351 -0.000001 -0.000000 -0.000000 0.006477 -0.299239 2.480413 0.060131 0.909824 -7.561675 -0.000002 -0.000003 0.000005 0.002881 0.199777 -1.655681 0.126069 1.314236 -10.958845 0.000001 0.000001 -0.000000 0.367178 4.649554 -4.562677 0.196058 -2.408017 -14.289102 0.000000 0.000000 -0.000000 0.000002 0.000001 0.000000 0.706590 3.629795 0.356513 -38.885985 48.457942 64.297434 -0.000120 71.117221 0.000120 23.351607 1.409840 -14.708464 -4.151976 -14.020109 -16.303810 15.239942 -19.689449 21.606422 -0.000001 0.000000 0.000000 0.020460 0.534148 -4.387360 0.001199 -0.129778 1.064994 -0.000001 0.000004 0.000001 0.001832 0.159719 -1.310649 0.018545 -0.508663 4.177785 0.000003 -0.000002 -0.000001 0.006234 -0.294897 2.420617 0.073092 -1.007608 8.297853 -0.000001 -0.000000 0.000004 0.032397 -0.671773 5.521099 0.143464 -1.407993 11.635597 -0.000001 -0.000004 -0.000002 -0.000000 0.000001 0.000001 -0.000000 -0.000000 0.000000 -0.000000 -0.000000 0.000000 -0.000000 -0.000000 0.000000 -0.000000 -0.000000 0.000000 -0.000000 -0.000000 0.000000 -0.000000 -0.000000 0.000000 -0.000000 -0.000000 0.000000 -0.000000 -0.000000 0.000000 -0.000000 -0.000000 0.000000 0.000000 -0.000000 -0.000000 0.000000 -0.000000 -0.000000 -0.000000 0.000000 -0.000000 
